<svg width="38" height="39" viewBox="0 0 38 39" fill="none" xmlns="http://www.w3.org/2000/svg">
<path d="M18.4059 6.0522C18.2574 6.20064 18.1514 6.98527 18.1514 8.06678C18.1514 9.04226 18.109 9.82688 18.0454 9.82688C18.003 9.82688 17.3456 9.48759 16.5821 9.06346C15.437 8.42728 15.1401 8.36366 14.7584 8.55452C14.4403 8.72417 14.3343 8.95743 14.3767 9.36035C14.4191 9.82688 14.7796 10.1238 16.2428 11.0144L18.0454 12.0747L18.109 14.8739C18.1302 16.422 18.109 17.6731 18.0454 17.6731C17.9817 17.6731 16.8366 17.037 15.5006 16.2735L13.0831 14.8951L13.0195 12.6261L12.9559 10.357H12.2137H11.4715L11.4079 11.9899C11.3654 12.9654 11.2594 13.644 11.1322 13.644C11.0049 13.644 10.3263 13.3047 9.62655 12.8806C8.26936 12.0959 7.63317 12.0323 7.25146 12.6261C6.91217 13.1774 7.27267 13.6228 8.79951 14.5134C9.52052 14.9376 10.1567 15.3405 10.1991 15.3829C10.2627 15.4253 9.73258 15.807 9.03278 16.2099C7.69679 16.9521 7.27267 17.6307 7.76041 18.2033C8.18453 18.7122 8.71468 18.585 10.3688 17.5671C11.2382 17.037 12.044 16.6128 12.1713 16.6128C12.4894 16.6128 16.879 19.1788 16.879 19.3696C16.879 19.5605 12.4894 22.1264 12.1713 22.1264C12.044 22.1264 11.2382 21.7023 10.3688 21.1721C8.71468 20.1543 8.18453 20.027 7.76041 20.536C7.27267 21.1085 7.69679 21.7871 9.03278 22.5293C9.73258 22.9323 10.2627 23.314 10.1991 23.3564C10.1567 23.3988 9.52052 23.8017 8.79951 24.2258C7.27267 25.1165 6.91217 25.5618 7.25146 26.092C7.63317 26.7069 8.26936 26.6433 9.62655 25.8587C10.3263 25.4346 11.0049 25.0953 11.1322 25.0953C11.2594 25.0953 11.3654 25.7739 11.4079 26.7281L11.4715 28.3822H12.2137H12.9559L13.0195 26.1132L13.0831 23.8441L15.5006 22.4657C16.8366 21.7023 17.9817 21.0661 18.0454 21.0661C18.109 21.0661 18.1302 22.3173 18.109 23.8653L18.0454 26.6645L16.2428 27.7248C14.7584 28.6155 14.4191 28.9124 14.3767 29.4001C14.3131 29.8454 14.4191 30.0151 14.8008 30.1635C15.1825 30.312 15.5643 30.2059 16.6246 29.6334C17.3456 29.2305 18.003 28.9124 18.0454 28.9124C18.0878 28.9124 18.1726 29.7394 18.1938 30.7361C18.2362 32.2205 18.321 32.6234 18.6391 32.8143C18.8936 32.9839 19.1057 32.9839 19.3813 32.8143C19.6782 32.6234 19.7631 32.2205 19.8055 30.7361C19.8267 29.7394 19.9115 28.9124 19.9539 28.9124C19.9963 28.9124 20.6537 29.2305 21.3747 29.6334C22.435 30.2059 22.8167 30.312 23.1984 30.1635C23.5802 30.0151 23.6862 29.8454 23.6226 29.4001C23.5802 28.9124 23.2409 28.6155 21.7564 27.7248L19.9539 26.6645L19.8903 23.8653C19.8691 22.3173 19.8903 21.0661 19.9539 21.0661C20.0175 21.0661 21.1627 21.7023 22.4986 22.4657L24.9161 23.8441L24.9798 26.1132L25.0434 28.3822H25.7856H26.5278L26.5914 26.7281C26.6338 25.7739 26.7399 25.0953 26.8671 25.0953C26.9943 25.0953 27.6729 25.4346 28.3727 25.8587C29.7299 26.6433 30.3661 26.7069 30.7478 26.092C31.0871 25.5618 30.7266 25.1165 29.1998 24.2258C28.4788 23.8017 27.8426 23.3988 27.8002 23.3564C27.7365 23.314 28.2667 22.9323 28.9665 22.5293C30.3025 21.7871 30.7266 21.1085 30.2389 20.536C29.8147 20.027 29.2846 20.1543 27.6305 21.1721C26.7611 21.7023 25.9552 22.1264 25.828 22.1264C25.5099 22.1264 21.1202 19.5605 21.1202 19.3696C21.1202 19.1788 25.5099 16.6128 25.828 16.6128C25.9552 16.6128 26.7611 17.037 27.6305 17.5671C29.2846 18.585 29.8147 18.7122 30.2389 18.2033C30.7266 17.6307 30.3025 16.9521 28.9665 16.2099C28.2667 15.807 27.7365 15.4253 27.8002 15.3829C27.8426 15.3405 28.4788 14.9376 29.1998 14.5134C30.7266 13.6228 31.0871 13.1774 30.7478 12.6261C30.3661 12.0323 29.7299 12.0959 28.3727 12.8806C27.6729 13.3047 26.9943 13.644 26.8671 13.644C26.7399 13.644 26.6338 12.9654 26.5914 11.9899L26.5278 10.357H25.7856H25.0434L24.9798 12.6261L24.9161 14.8951L22.4986 16.2735C21.1627 17.037 20.0175 17.6731 19.9539 17.6731C19.8903 17.6731 19.8691 16.422 19.8903 14.8739L19.9539 12.0747L21.7564 11.0144C23.2197 10.1238 23.5802 9.82688 23.6226 9.36035C23.665 8.95743 23.5589 8.72417 23.2409 8.55452C22.8591 8.36366 22.5623 8.42728 21.4171 9.06346C20.6537 9.48759 19.9963 9.82688 19.9539 9.82688C19.8903 9.82688 19.8479 9.04226 19.8479 8.06678C19.8479 6.28547 19.6782 5.79773 18.9996 5.79773C18.8088 5.79773 18.5543 5.90376 18.4059 6.0522Z" fill="#3B81F5"/>
</svg>
