<svg width="20" height="20" viewBox="0 0 20 20" fill="none" xmlns="http://www.w3.org/2000/svg">
<path d="M9.32932 0.732237C9.22601 0.835539 9.15223 1.38157 9.15223 2.13421C9.15223 2.81306 9.12271 3.35909 9.07844 3.35909C9.04892 3.35909 8.59144 3.12296 8.06017 2.82781C7.26326 2.38509 7.05665 2.34081 6.79101 2.47363C6.56965 2.59169 6.49586 2.75402 6.52538 3.03442C6.55489 3.35909 6.80577 3.56569 7.82404 4.18551L9.07844 4.92339L9.12271 6.87139C9.13747 7.9487 9.12271 8.81939 9.07844 8.81939C9.03417 8.81939 8.23726 8.37667 7.30753 7.84539L5.62516 6.88615L5.58089 5.30709L5.53662 3.72803H5.0201H4.50359L4.45931 4.86436C4.4298 5.54321 4.35601 6.01545 4.26747 6.01545C4.17892 6.01545 3.70668 5.77933 3.21968 5.48418C2.27519 4.93815 1.83246 4.89388 1.56683 5.30709C1.33071 5.69078 1.58159 6.00069 2.64413 6.62051C3.14589 6.91566 3.58862 7.19606 3.61813 7.22557C3.66241 7.25509 3.29347 7.52073 2.80647 7.80112C1.87674 8.31764 1.58159 8.78988 1.92101 9.18833C2.21616 9.54251 2.5851 9.45397 3.73619 8.74561C4.34125 8.37667 4.90204 8.08151 4.99059 8.08151C5.21195 8.08151 8.26677 9.86718 8.26677 10C8.26677 10.1328 5.21195 11.9185 4.99059 11.9185C4.90204 11.9185 4.34125 11.6233 3.73619 11.2544C2.5851 10.546 2.21616 10.4575 1.92101 10.8117C1.58159 11.2101 1.87674 11.6824 2.80647 12.1989C3.29347 12.4793 3.66241 12.7449 3.61813 12.7744C3.58862 12.8039 3.14589 13.0843 2.64413 13.3795C1.58159 13.9993 1.33071 14.3092 1.56683 14.6782C1.83246 15.1061 2.27519 15.0619 3.21968 14.5158C3.70668 14.2207 4.17892 13.9845 4.26747 13.9845C4.35601 13.9845 4.4298 14.4568 4.45931 15.1209L4.50359 16.272H5.0201H5.53662L5.58089 14.6929L5.62516 13.1139L7.30753 12.1546C8.23726 11.6233 9.03417 11.1806 9.07844 11.1806C9.12271 11.1806 9.13747 12.0513 9.12271 13.1286L9.07844 15.0766L7.82404 15.8145C6.79101 16.4343 6.55489 16.6409 6.52538 16.9803C6.4811 17.2902 6.55489 17.4083 6.82053 17.5116C7.08617 17.6149 7.3518 17.5411 8.08968 17.1427C8.59144 16.8623 9.04892 16.6409 9.07844 16.6409C9.10795 16.6409 9.16698 17.2165 9.18174 17.9101C9.21126 18.9431 9.27029 19.2235 9.49165 19.3563C9.66874 19.4744 9.81632 19.4744 10.0082 19.3563C10.2148 19.2235 10.2738 18.9431 10.3033 17.9101C10.3181 17.2165 10.3771 16.6409 10.4066 16.6409C10.4361 16.6409 10.8936 16.8623 11.3954 17.1427C12.1333 17.5411 12.3989 17.6149 12.6645 17.5116C12.9302 17.4083 13.004 17.2902 12.9597 16.9803C12.9302 16.6409 12.694 16.4343 11.661 15.8145L10.4066 15.0766L10.3623 13.1286C10.3476 12.0513 10.3623 11.1806 10.4066 11.1806C10.4509 11.1806 11.2478 11.6233 12.1775 12.1546L13.8599 13.1139L13.9042 14.6929L13.9484 16.272H14.465H14.9815L15.0257 15.1209C15.0553 14.4568 15.129 13.9845 15.2176 13.9845C15.3061 13.9845 15.7784 14.2207 16.2654 14.5158C17.2099 15.0619 17.6526 15.1061 17.9182 14.6782C18.1544 14.3092 17.9035 13.9993 16.8409 13.3795C16.3392 13.0843 15.8964 12.8039 15.8669 12.7744C15.8227 12.7449 16.1916 12.4793 16.6786 12.1989C17.6083 11.6824 17.9035 11.2101 17.5641 10.8117C17.2689 10.4575 16.9 10.546 15.7489 11.2544C15.1438 11.6233 14.583 11.9185 14.4945 11.9185C14.2731 11.9185 11.2183 10.1328 11.2183 10C11.2183 9.86718 14.2731 8.08151 14.4945 8.08151C14.583 8.08151 15.1438 8.37667 15.7489 8.74561C16.9 9.45397 17.2689 9.54251 17.5641 9.18833C17.9035 8.78988 17.6083 8.31764 16.6786 7.80112C16.1916 7.52073 15.8227 7.25509 15.8669 7.22557C15.8964 7.19606 16.3392 6.91566 16.8409 6.62051C17.9035 6.00069 18.1544 5.69078 17.9182 5.30709C17.6526 4.89388 17.2099 4.93815 16.2654 5.48418C15.7784 5.77933 15.3061 6.01545 15.2176 6.01545C15.129 6.01545 15.0553 5.54321 15.0257 4.86436L14.9815 3.72803H14.465H13.9484L13.9042 5.30709L13.8599 6.88615L12.1775 7.84539C11.2478 8.37667 10.4509 8.81939 10.4066 8.81939C10.3623 8.81939 10.3476 7.9487 10.3623 6.87139L10.4066 4.92339L11.661 4.18551C12.6793 3.56569 12.9302 3.35909 12.9597 3.03442C12.9892 2.75402 12.9154 2.59169 12.694 2.47363C12.4284 2.34081 12.2218 2.38509 11.4249 2.82781C10.8936 3.12296 10.4361 3.35909 10.4066 3.35909C10.3623 3.35909 10.3328 2.81306 10.3328 2.13421C10.3328 0.894569 10.2148 0.555145 9.74253 0.555145C9.60971 0.555145 9.43262 0.628933 9.32932 0.732237Z" fill="#3B81F5"/>
</svg>
