<?xml version="1.0" encoding="UTF-8"?>
<svg id="Calque_2" data-name="Calque 2" xmlns="http://www.w3.org/2000/svg" viewBox="0 0 1315.26 1444.59">
  <defs>
    <style>
      .cls-1, .cls-2 {
        fill: #fff;
      }

      .cls-3 {
        stroke: #515151;
        stroke-linecap: round;
        stroke-width: 6px;
      }

      .cls-3, .cls-4 {
        stroke-linejoin: round;
      }

      .cls-3, .cls-4, .cls-5 {
        fill: none;
      }

      .cls-4 {
        stroke: #cecece;
        stroke-width: 2px;
      }

      .cls-6 {
        fill: #6d4aff;
      }

      .cls-6, .cls-2 {
        stroke: #6d4aff;
        stroke-miterlimit: 10;
        stroke-width: 4px;
      }

      .cls-5 {
        opacity: .3;
      }
    </style>
  </defs>
  <g class="cls-5">
    <path class="cls-3" d="m1281.98,228.81l-58.1,354.41c-1.63,9.97-10.32,17.23-20.42,17.08l-751.99-11.31c-12.12-.18-21.72,10.2-20.6,22.27l66.76,716.06c.68,7.3-2.62,14.41-8.63,18.61l-103.29,72.05c-12.75,8.9-30.37.81-31.94-14.67l-58.08-574.8c-1.11-10.99-10.77-19.09-21.79-18.27l-156.59,11.65c-11.07.82-20.77-7.37-21.8-18.42L26.94,71.82c-1.06-11.35,7.39-21.37,18.76-22.22l311.69-23.47c11.11-.84,20.84,7.41,21.83,18.51l25,280.08c.94,10.48,9.7,18.53,20.22,18.57l570.31,2.22c10.11.04,18.73-7.34,20.23-17.35l21.33-141.71c1.7-11.32,12.4-19.02,23.67-17.04l205.39,36.02c11,1.93,18.4,12.35,16.59,23.37Z"/>
    <g>
      <path class="cls-2" d="m60.58,430.77L25.55,56.94c-.3-3.18,2.07-5.98,5.25-6.22l182.14-13.81c3.11-.24,5.83,2.07,6.11,5.17l33.83,370.75c.29,3.13-2.02,5.91-5.15,6.2l-180.93,16.9c-3.14.29-5.92-2.01-6.21-5.15Z"/>
      <g>
        <path d="m123.49,229.25h-8.75l-1.72,4.5h-3.35l7.87-19.45h3.2l7.9,19.45h-3.4l-1.75-4.5Zm-1.07-2.83l-3.3-8.5-3.27,8.5h6.57Z"/>
        <path d="m134.62,214.3v19.45h-3.25v-16.42h-3.7v-3.03h6.95Z"/>
        <path d="m138.09,224.02c0-6.39,3.15-10,7.3-10s7.32,3.61,7.32,10-3.15,10-7.32,10-7.3-3.61-7.3-10Zm11.35,0c0-4.7-1.65-6.86-4.05-6.86s-4.02,2.17-4.02,6.86,1.65,6.86,4.02,6.86,4.05-2.17,4.05-6.86Z"/>
        <path d="m167.64,227.77c0,3.42-2.22,6.25-6.92,6.25-2.47,0-4.97-.83-6.57-2.25l1.38-2.81c1.27,1.17,3.17,1.92,5.15,1.92,2.33,0,3.7-1.14,3.7-2.97s-1.07-3.03-4.7-3.03h-4.22l.9-10.59h10.27v3.03h-7.52l-.38,4.5h1.67c5.17,0,7.25,2.5,7.25,5.95Z"/>
      </g>
      <g>
        <path d="m83.03,251.71l.48-1.01c.68.61,1.83,1.05,3,1.05,1.57,0,2.25-.61,2.25-1.4,0-2.22-5.51-.82-5.51-4.2,0-1.4,1.09-2.6,3.48-2.6,1.07,0,2.17.29,2.92.81l-.43,1.04c-.79-.51-1.69-.74-2.5-.74-1.55,0-2.21.65-2.21,1.44,0,2.22,5.51.83,5.51,4.17,0,1.39-1.12,2.59-3.52,2.59-1.39,0-2.76-.47-3.48-1.14Z"/>
        <path d="m97.73,250.47h-4.84l-1,2.28h-1.34l4.12-9.1h1.29l4.13,9.1h-1.37l-1-2.28Zm-.46-1.04l-1.96-4.46-1.96,4.46h3.93Z"/>
        <path d="m101.45,243.65h1.3v7.97h4.93v1.13h-6.23v-9.1Z"/>
        <path d="m109.17,243.65h1.3v7.97h4.93v1.13h-6.23v-9.1Z"/>
        <path d="m123.5,251.62v1.13h-6.6v-9.1h6.42v1.13h-5.12v2.79h4.56v1.11h-4.56v2.94h5.3Z"/>
        <path d="m129.1,243.65h3.83c2.93,0,4.91,1.85,4.91,4.55s-1.99,4.55-4.91,4.55h-3.83v-9.1Zm3.76,7.97c2.25,0,3.69-1.38,3.69-3.42s-1.44-3.42-3.69-3.42h-2.46v6.84h2.46Z"/>
        <path d="m146.44,251.62v1.13h-6.6v-9.1h6.42v1.13h-5.12v2.79h4.56v1.11h-4.56v2.94h5.3Z"/>
        <path d="m151.3,248.2c0-2.69,2.05-4.65,4.82-4.65,1.4,0,2.63.48,3.46,1.42l-.85.82c-.7-.74-1.56-1.08-2.56-1.08-2.05,0-3.58,1.48-3.58,3.5s1.52,3.5,3.58,3.5c1,0,1.86-.35,2.56-1.09l.85.82c-.83.94-2.05,1.43-3.47,1.43-2.76,0-4.81-1.96-4.81-4.65Z"/>
        <path d="m160.51,248.2c0-2.67,2.05-4.65,4.85-4.65s4.82,1.98,4.82,4.65-2.05,4.65-4.82,4.65-4.85-1.99-4.85-4.65Zm8.37,0c0-2.01-1.51-3.5-3.52-3.5s-3.55,1.48-3.55,3.5,1.51,3.5,3.55,3.5,3.52-1.48,3.52-3.5Z"/>
        <path d="m172.09,248.82v-5.17h1.3v5.12c0,2.02.92,2.92,2.56,2.92s2.57-.91,2.57-2.92v-5.12h1.26v5.17c0,2.64-1.44,4.03-3.85,4.03s-3.85-1.39-3.85-4.03Z"/>
        <path d="m188.54,252.75l-1.96-2.79c-.18.01-.38.03-.57.03h-2.25v2.77h-1.3v-9.1h3.55c2.37,0,3.8,1.2,3.8,3.17,0,1.4-.73,2.42-2,2.87l2.16,3.06h-1.42Zm-.04-5.93c0-1.3-.87-2.04-2.54-2.04h-2.21v4.1h2.21c1.66,0,2.54-.75,2.54-2.05Z"/>
        <path d="m191.07,251.71l.48-1.01c.68.61,1.83,1.05,3,1.05,1.57,0,2.25-.61,2.25-1.4,0-2.22-5.51-.82-5.51-4.2,0-1.4,1.09-2.6,3.48-2.6,1.07,0,2.17.29,2.92.81l-.43,1.04c-.79-.51-1.69-.74-2.5-.74-1.55,0-2.21.65-2.21,1.44,0,2.22,5.51.83,5.51,4.17,0,1.39-1.12,2.59-3.52,2.59-1.39,0-2.76-.47-3.48-1.14Z"/>
      </g>
    </g>
    <g>
      <path class="cls-2" d="m286.76,223.06l101.31-9.46c3.14-.29,5.92,2.01,6.21,5.15l11.09,118.9c.29,3.09-1.95,5.84-5.03,6.2l-100.82,11.61c-3.17.37-6.03-1.94-6.33-5.12l-11.58-121.05c-.3-3.14,2.01-5.93,5.15-6.22Z"/>
      <g>
        <path d="m326.87,302.72c0,1.56-1.18,2.46-3.48,2.46h-4.34v-9.1h4.08c2.09,0,3.26.88,3.26,2.35,0,.99-.51,1.68-1.22,2.03,1.03.29,1.7,1.05,1.7,2.26Zm-6.53-5.59v2.91h2.67c1.33,0,2.08-.49,2.08-1.46s-.75-1.46-2.08-1.46h-2.67Zm5.21,5.49c0-1.05-.78-1.52-2.22-1.52h-2.99v3.03h2.99c1.44,0,2.22-.46,2.22-1.51Z"/>
        <path d="m328.8,301.25v-5.17h1.3v5.12c0,2.01.92,2.92,2.56,2.92s2.57-.91,2.57-2.92v-5.12h1.26v5.17c0,2.64-1.44,4.03-3.85,4.03s-3.85-1.39-3.85-4.03Z"/>
        <path d="m345.25,305.18l-1.96-2.79c-.18.01-.38.03-.57.03h-2.25v2.77h-1.3v-9.1h3.55c2.37,0,3.8,1.2,3.8,3.17,0,1.4-.73,2.42-2,2.87l2.16,3.05h-1.42Zm-.04-5.93c0-1.3-.87-2.04-2.54-2.04h-2.21v4.09h2.21c1.66,0,2.54-.75,2.54-2.05Z"/>
        <path d="m355.22,304.05v1.13h-6.6v-9.1h6.42v1.13h-5.12v2.79h4.56v1.1h-4.56v2.94h5.3Z"/>
        <path d="m363.12,302.9h-4.84l-1,2.27h-1.34l4.12-9.1h1.29l4.13,9.1h-1.37l-1-2.27Zm-.46-1.04l-1.96-4.46-1.96,4.46h3.93Z"/>
        <path d="m366.57,301.25v-5.17h1.3v5.12c0,2.01.92,2.92,2.56,2.92s2.57-.91,2.57-2.92v-5.12h1.26v5.17c0,2.64-1.44,4.03-3.85,4.03s-3.85-1.39-3.85-4.03Z"/>
      </g>
      <g>
        <path d="m327.58,281.85h-8.75l-1.72,4.5h-3.35l7.87-19.45h3.2l7.9,19.45h-3.4l-1.75-4.5Zm-1.07-2.83l-3.3-8.5-3.27,8.5h6.57Z"/>
        <path d="m338.71,266.9v19.45h-3.25v-16.42h-3.7v-3.03h6.95Z"/>
        <path d="m342.18,276.63c0-6.39,3.15-10,7.3-10s7.32,3.61,7.32,10-3.15,10-7.32,10-7.3-3.61-7.3-10Zm11.35,0c0-4.7-1.65-6.86-4.05-6.86s-4.02,2.17-4.02,6.86,1.65,6.86,4.02,6.86,4.05-2.17,4.05-6.86Z"/>
        <path d="m374.6,281.93h-3.1v4.42h-3.15v-4.42h-9.6v-2.5l8.62-12.53h3.47l-8.12,11.98h5.72v-3.92h3.05v3.92h3.1v3.06Z"/>
      </g>
    </g>
    <g>
      <path class="cls-2" d="m61.64,442.13l19.7,210.07c.29,3.14,3.08,5.44,6.21,5.15l183.92-17.27c3.17-.3,5.48-3.13,5.14-6.29l-22.62-209.7c-.33-3.1-3.1-5.36-6.2-5.07l-181,16.9c-3.14.29-5.44,3.07-5.15,6.21Z"/>
      <g>
        <path d="m110.12,567.2l.48-1.01c.68.61,1.83,1.05,3,1.05,1.57,0,2.25-.61,2.25-1.4,0-2.22-5.51-.82-5.51-4.2,0-1.4,1.09-2.6,3.48-2.6,1.07,0,2.17.29,2.92.81l-.43,1.04c-.79-.51-1.69-.74-2.5-.74-1.55,0-2.21.65-2.21,1.44,0,2.22,5.51.83,5.51,4.17,0,1.39-1.12,2.59-3.52,2.59-1.39,0-2.76-.47-3.48-1.14Z"/>
        <path d="m124.82,565.97h-4.84l-1,2.27h-1.34l4.12-9.1h1.29l4.13,9.1h-1.37l-1-2.27Zm-.46-1.04l-1.96-4.46-1.96,4.46h3.93Z"/>
        <path d="m128.54,559.14h1.3v7.97h4.93v1.13h-6.23v-9.1Z"/>
        <path d="m136.26,559.14h1.3v7.97h4.93v1.13h-6.23v-9.1Z"/>
        <path d="m150.59,567.11v1.13h-6.6v-9.1h6.42v1.13h-5.12v2.79h4.56v1.1h-4.56v2.94h5.3Z"/>
        <path d="m156.19,559.14h3.83c2.93,0,4.91,1.85,4.91,4.55s-1.99,4.55-4.91,4.55h-3.83v-9.1Zm3.76,7.97c2.25,0,3.69-1.38,3.69-3.42s-1.44-3.42-3.69-3.42h-2.46v6.84h2.46Z"/>
        <path d="m173.53,567.11v1.13h-6.6v-9.1h6.42v1.13h-5.12v2.79h4.56v1.1h-4.56v2.94h5.3Z"/>
        <path d="m178.4,563.69c0-2.69,2.05-4.65,4.82-4.65,1.4,0,2.63.48,3.46,1.42l-.85.82c-.7-.74-1.56-1.08-2.56-1.08-2.05,0-3.58,1.48-3.58,3.5s1.52,3.5,3.58,3.5c1,0,1.86-.35,2.56-1.09l.85.82c-.83.94-2.05,1.43-3.47,1.43-2.76,0-4.81-1.96-4.81-4.65Z"/>
        <path d="m187.6,563.69c0-2.67,2.05-4.65,4.85-4.65s4.82,1.98,4.82,4.65-2.05,4.65-4.82,4.65-4.85-1.99-4.85-4.65Zm8.37,0c0-2.02-1.51-3.5-3.52-3.5s-3.55,1.48-3.55,3.5,1.51,3.5,3.55,3.5,3.52-1.48,3.52-3.5Z"/>
        <path d="m199.18,564.32v-5.17h1.3v5.12c0,2.01.92,2.92,2.56,2.92s2.57-.91,2.57-2.92v-5.12h1.26v5.17c0,2.64-1.44,4.03-3.85,4.03s-3.85-1.39-3.85-4.03Z"/>
        <path d="m215.63,568.24l-1.96-2.79c-.18.01-.38.03-.57.03h-2.25v2.77h-1.3v-9.1h3.55c2.37,0,3.8,1.2,3.8,3.17,0,1.4-.73,2.42-2,2.87l2.16,3.05h-1.42Zm-.04-5.93c0-1.3-.87-2.04-2.54-2.04h-2.21v4.09h2.21c1.66,0,2.54-.75,2.54-2.05Z"/>
        <path d="m218.16,567.2l.48-1.01c.68.61,1.83,1.05,3,1.05,1.57,0,2.25-.61,2.25-1.4,0-2.22-5.51-.82-5.51-4.2,0-1.4,1.09-2.6,3.48-2.6,1.07,0,2.17.29,2.92.81l-.43,1.04c-.79-.51-1.69-.74-2.5-.74-1.55,0-2.21.65-2.21,1.44,0,2.22,5.51.83,5.51,4.17,0,1.39-1.12,2.59-3.52,2.59-1.39,0-2.76-.47-3.48-1.14Z"/>
      </g>
      <g>
        <path d="m149.69,542.69h-8.75l-1.72,4.5h-3.35l7.87-19.45h3.2l7.9,19.45h-3.4l-1.75-4.5Zm-1.08-2.83l-3.3-8.5-3.27,8.5h6.57Z"/>
        <path d="m160.81,527.74v19.45h-3.25v-16.42h-3.7v-3.03h6.95Z"/>
        <path d="m164.29,537.47c0-6.39,3.15-10,7.3-10s7.32,3.61,7.32,10-3.15,10-7.32,10-7.3-3.61-7.3-10Zm11.35,0c0-4.7-1.65-6.86-4.05-6.86s-4.02,2.17-4.02,6.86,1.65,6.86,4.02,6.86,4.05-2.17,4.05-6.86Z"/>
        <path d="m195.08,541.16c0,3.86-2.82,6.31-6.4,6.31-4.77,0-7.57-3.42-7.57-9.67,0-6.67,3.5-10.34,8.57-10.34,1.75,0,3.42.42,4.6,1.25l-1.2,2.72c-.95-.69-2.1-.95-3.32-.95-3.3,0-5.37,2.28-5.37,6.7v.03c1.05-1.36,2.72-2.03,4.67-2.03,3.45,0,6.02,2.33,6.02,5.97Zm-3.15.17c0-2.03-1.37-3.31-3.5-3.31s-3.55,1.42-3.55,3.33,1.3,3.28,3.62,3.28c2.02,0,3.42-1.28,3.42-3.31Z"/>
      </g>
    </g>
    <g>
      <path class="cls-2" d="m311.94,483.16h101.8c2.95,0,5.41,2.24,5.68,5.18l14.46,155.22c.29,3.11-1.97,5.87-5.07,6.2l-100.44,10.73c-3.16.34-5.98-1.97-6.28-5.13l-15.82-165.95c-.32-3.35,2.31-6.25,5.68-6.25Z"/>
      <g>
        <path d="m356.33,587.74c0,1.56-1.18,2.46-3.48,2.46h-4.34v-9.1h4.08c2.09,0,3.26.88,3.26,2.35,0,.99-.51,1.68-1.22,2.03,1.03.29,1.7,1.05,1.7,2.26Zm-6.53-5.59v2.91h2.67c1.33,0,2.08-.49,2.08-1.46s-.75-1.46-2.08-1.46h-2.67Zm5.21,5.49c0-1.05-.78-1.52-2.22-1.52h-2.99v3.03h2.99c1.44,0,2.22-.46,2.22-1.51Z"/>
        <path d="m358.27,586.27v-5.17h1.3v5.12c0,2.01.92,2.92,2.56,2.92s2.57-.91,2.57-2.92v-5.12h1.26v5.17c0,2.64-1.44,4.03-3.85,4.03s-3.85-1.39-3.85-4.03Z"/>
        <path d="m374.71,590.19l-1.96-2.79c-.18.01-.38.03-.57.03h-2.25v2.77h-1.3v-9.1h3.55c2.37,0,3.8,1.2,3.8,3.17,0,1.4-.73,2.42-2,2.87l2.16,3.05h-1.42Zm-.04-5.93c0-1.3-.87-2.04-2.54-2.04h-2.21v4.09h2.21c1.66,0,2.54-.75,2.54-2.05Z"/>
        <path d="m384.69,589.06v1.13h-6.6v-9.1h6.42v1.13h-5.12v2.79h4.56v1.1h-4.56v2.94h5.3Z"/>
        <path d="m392.59,587.92h-4.84l-1,2.27h-1.34l4.12-9.1h1.29l4.13,9.1h-1.37l-1-2.27Zm-.46-1.04l-1.96-4.46-1.96,4.46h3.93Z"/>
        <path d="m396.03,586.27v-5.17h1.3v5.12c0,2.01.92,2.92,2.56,2.92s2.57-.91,2.57-2.92v-5.12h1.26v5.17c0,2.64-1.44,4.03-3.85,4.03s-3.85-1.39-3.85-4.03Z"/>
      </g>
      <g>
        <path d="m358.63,566.67h-8.75l-1.72,4.5h-3.35l7.87-19.45h3.2l7.9,19.45h-3.4l-1.75-4.5Zm-1.07-2.83l-3.3-8.5-3.27,8.5h6.57Z"/>
        <path d="m369.75,551.72v19.45h-3.25v-16.42h-3.7v-3.03h6.95Z"/>
        <path d="m373.23,561.44c0-6.39,3.15-10,7.3-10s7.32,3.61,7.32,10-3.15,10-7.32,10-7.3-3.61-7.3-10Zm11.35,0c0-4.7-1.65-6.86-4.05-6.86s-4.02,2.17-4.02,6.86,1.65,6.86,4.02,6.86,4.05-2.17,4.05-6.86Z"/>
        <path d="m403.13,551.72v2.42l-6.8,17.03h-3.47l6.57-16.39h-6.87v3.31h-3.02v-6.36h13.6Z"/>
      </g>
    </g>
    <g>
      <path class="cls-2" d="m433.89,588.72c-2.91-.04-5.33-2.27-5.6-5.17l-9.35-100.39-8.12-86.94c-.32-3.4,2.4-6.31,5.81-6.23l282.82,6.6c3.13.07,5.61,2.65,5.57,5.78l-2.59,184.62c-.04,3.15-2.64,5.67-5.79,5.62l-262.76-3.88Z"/>
      <g>
        <path d="m499.89,517.96l.48-1.01c.68.61,1.83,1.05,3,1.05,1.57,0,2.25-.61,2.25-1.4,0-2.22-5.51-.82-5.51-4.2,0-1.4,1.09-2.6,3.48-2.6,1.07,0,2.17.29,2.92.81l-.43,1.04c-.79-.51-1.69-.74-2.5-.74-1.55,0-2.21.65-2.21,1.44,0,2.22,5.51.83,5.51,4.17,0,1.39-1.12,2.59-3.52,2.59-1.39,0-2.76-.47-3.48-1.14Z"/>
        <path d="m514.59,516.73h-4.84l-1,2.28h-1.34l4.12-9.1h1.29l4.13,9.1h-1.37l-1-2.28Zm-.46-1.04l-1.96-4.46-1.96,4.46h3.93Z"/>
        <path d="m518.31,509.9h1.3v7.97h4.93v1.13h-6.23v-9.1Z"/>
        <path d="m526.03,509.9h1.3v7.97h4.93v1.13h-6.23v-9.1Z"/>
        <path d="m540.36,517.87v1.13h-6.6v-9.1h6.42v1.13h-5.12v2.79h4.56v1.11h-4.56v2.94h5.3Z"/>
        <path d="m545.96,509.9h3.83c2.93,0,4.91,1.85,4.91,4.55s-1.99,4.55-4.91,4.55h-3.83v-9.1Zm3.76,7.97c2.25,0,3.69-1.38,3.69-3.42s-1.44-3.42-3.69-3.42h-2.46v6.84h2.46Z"/>
        <path d="m563.3,517.87v1.13h-6.6v-9.1h6.42v1.13h-5.12v2.79h4.56v1.11h-4.56v2.94h5.3Z"/>
        <path d="m568.16,514.45c0-2.69,2.05-4.65,4.82-4.65,1.4,0,2.63.48,3.46,1.42l-.85.82c-.7-.74-1.56-1.08-2.56-1.08-2.05,0-3.58,1.48-3.58,3.5s1.52,3.5,3.58,3.5c1,0,1.86-.35,2.56-1.09l.85.82c-.83.94-2.05,1.43-3.47,1.43-2.76,0-4.81-1.96-4.81-4.65Z"/>
        <path d="m577.37,514.45c0-2.67,2.05-4.65,4.85-4.65s4.82,1.98,4.82,4.65-2.05,4.65-4.82,4.65-4.85-1.99-4.85-4.65Zm8.37,0c0-2.01-1.51-3.5-3.52-3.5s-3.55,1.48-3.55,3.5,1.51,3.5,3.55,3.5,3.52-1.48,3.52-3.5Z"/>
        <path d="m588.95,515.08v-5.17h1.3v5.12c0,2.02.92,2.92,2.56,2.92s2.57-.91,2.57-2.92v-5.12h1.26v5.17c0,2.64-1.44,4.03-3.85,4.03s-3.85-1.39-3.85-4.03Z"/>
        <path d="m605.4,519l-1.96-2.79c-.18.01-.38.03-.57.03h-2.25v2.77h-1.3v-9.1h3.55c2.37,0,3.8,1.2,3.8,3.17,0,1.4-.73,2.42-2,2.87l2.16,3.06h-1.42Zm-.04-5.93c0-1.3-.87-2.04-2.54-2.04h-2.21v4.1h2.21c1.66,0,2.54-.75,2.54-2.05Z"/>
        <path d="m607.93,517.96l.48-1.01c.68.61,1.83,1.05,3,1.05,1.57,0,2.25-.61,2.25-1.4,0-2.22-5.51-.82-5.51-4.2,0-1.4,1.09-2.6,3.48-2.6,1.07,0,2.17.29,2.92.81l-.43,1.04c-.79-.51-1.69-.74-2.5-.74-1.55,0-2.21.65-2.21,1.44,0,2.22,5.51.83,5.51,4.17,0,1.39-1.12,2.59-3.52,2.59-1.39,0-2.76-.47-3.48-1.14Z"/>
      </g>
      <g>
        <path d="m550.65,494.58h-8.75l-1.72,4.5h-3.35l7.87-19.45h3.2l7.9,19.45h-3.4l-1.75-4.5Zm-1.08-2.83l-3.3-8.5-3.27,8.5h6.57Z"/>
        <path d="m561.78,479.63v19.45h-3.25v-16.42h-3.7v-3.03h6.95Z"/>
        <path d="m571.3,479.63v19.45h-3.25v-16.42h-3.7v-3.03h6.95Z"/>
        <path d="m580.83,479.63v19.45h-3.25v-16.42h-3.7v-3.03h6.95Z"/>
      </g>
    </g>
    <g>
      <path class="cls-2" d="m710.82,396.81l205.44,3.32c.92.01,1.83.25,2.64.7l56.33,30.72c1.83,1,2.97,2.92,2.97,5.01v154.56c0,3.18-2.61,5.75-5.79,5.7l-264.36-4.05c-3.15-.05-5.66-2.64-5.62-5.78l2.59-184.56c.04-3.15,2.64-5.67,5.8-5.62Z"/>
      <g>
        <path d="m780,530.29l.48-1.01c.68.61,1.83,1.05,3,1.05,1.57,0,2.25-.61,2.25-1.4,0-2.22-5.51-.82-5.51-4.2,0-1.4,1.09-2.6,3.48-2.6,1.07,0,2.17.29,2.92.81l-.43,1.04c-.79-.51-1.69-.74-2.5-.74-1.55,0-2.21.65-2.21,1.44,0,2.22,5.51.83,5.51,4.17,0,1.39-1.12,2.59-3.52,2.59-1.39,0-2.76-.47-3.48-1.14Z"/>
        <path d="m794.7,529.06h-4.84l-1,2.27h-1.34l4.12-9.1h1.29l4.13,9.1h-1.37l-1-2.27Zm-.46-1.04l-1.96-4.46-1.96,4.46h3.93Z"/>
        <path d="m798.42,522.23h1.3v7.97h4.93v1.13h-6.23v-9.1Z"/>
        <path d="m806.14,522.23h1.3v7.97h4.93v1.13h-6.23v-9.1Z"/>
        <path d="m820.47,530.2v1.13h-6.6v-9.1h6.42v1.13h-5.12v2.79h4.56v1.1h-4.56v2.94h5.3Z"/>
        <path d="m826.07,522.23h3.83c2.92,0,4.91,1.85,4.91,4.55s-1.99,4.55-4.91,4.55h-3.83v-9.1Zm3.76,7.97c2.25,0,3.69-1.38,3.69-3.42s-1.44-3.42-3.69-3.42h-2.46v6.84h2.46Z"/>
        <path d="m843.42,530.2v1.13h-6.6v-9.1h6.42v1.13h-5.12v2.79h4.56v1.1h-4.56v2.94h5.3Z"/>
        <path d="m848.28,526.78c0-2.69,2.05-4.65,4.82-4.65,1.4,0,2.63.48,3.46,1.42l-.84.82c-.7-.74-1.56-1.08-2.56-1.08-2.05,0-3.57,1.48-3.57,3.5s1.52,3.5,3.57,3.5c1,0,1.86-.35,2.56-1.09l.84.82c-.83.94-2.05,1.43-3.47,1.43-2.76,0-4.81-1.96-4.81-4.65Z"/>
        <path d="m857.48,526.78c0-2.67,2.05-4.65,4.85-4.65s4.82,1.98,4.82,4.65-2.05,4.65-4.82,4.65-4.85-1.99-4.85-4.65Zm8.37,0c0-2.02-1.51-3.5-3.52-3.5s-3.55,1.48-3.55,3.5,1.51,3.5,3.55,3.5,3.52-1.48,3.52-3.5Z"/>
        <path d="m869.06,527.4v-5.17h1.3v5.12c0,2.01.92,2.92,2.56,2.92s2.57-.91,2.57-2.92v-5.12h1.26v5.17c0,2.64-1.44,4.03-3.85,4.03s-3.85-1.39-3.85-4.03Z"/>
        <path d="m885.51,531.33l-1.96-2.79c-.18.01-.38.03-.57.03h-2.25v2.77h-1.3v-9.1h3.55c2.37,0,3.8,1.2,3.8,3.17,0,1.4-.73,2.42-2,2.87l2.16,3.05h-1.42Zm-.04-5.93c0-1.3-.87-2.04-2.54-2.04h-2.21v4.09h2.21c1.66,0,2.54-.75,2.54-2.05Z"/>
        <path d="m888.04,530.29l.48-1.01c.68.61,1.83,1.05,3,1.05,1.57,0,2.25-.61,2.25-1.4,0-2.22-5.51-.82-5.51-4.2,0-1.4,1.09-2.6,3.48-2.6,1.07,0,2.17.29,2.92.81l-.43,1.04c-.79-.51-1.69-.74-2.5-.74-1.55,0-2.21.65-2.21,1.44,0,2.22,5.51.83,5.51,4.17,0,1.39-1.12,2.59-3.52,2.59-1.39,0-2.76-.47-3.48-1.14Z"/>
      </g>
      <g>
        <path d="m826.58,506.5h-8.75l-1.72,4.5h-3.35l7.87-19.45h3.2l7.9,19.45h-3.4l-1.75-4.5Zm-1.08-2.83l-3.3-8.5-3.27,8.5h6.57Z"/>
        <path d="m837.71,491.55v19.45h-3.25v-16.42h-3.7v-3.03h6.95Z"/>
        <path d="m847.23,491.55v19.45h-3.25v-16.42h-3.7v-3.03h6.95Z"/>
        <path d="m863.38,507.95v3.06h-12.9v-2.42l6.95-7.33c1.7-1.81,2-2.95,2-4.03,0-1.78-1.1-2.81-3.25-2.81-1.7,0-3.12.64-4.1,2.03l-2.27-1.94c1.35-2.03,3.77-3.22,6.65-3.22,3.8,0,6.25,2.14,6.25,5.58,0,1.89-.47,3.61-2.9,6.14l-4.67,4.95h8.25Z"/>
      </g>
    </g>
    <g>
      <path class="cls-2" d="m1101.7,392.73l143.94,22.1c3.14.48,5.28,3.43,4.76,6.56l-28.58,174.32c-.46,2.79-2.89,4.82-5.71,4.78l-153.35-2.31c-3.55-.05-6.2-3.31-5.51-6.8l37.99-194.11c.59-3,3.44-5.01,6.46-4.54Z"/>
      <g>
        <path d="m1096.3,538.29l.48-1.01c.68.61,1.83,1.05,3,1.05,1.57,0,2.25-.61,2.25-1.4,0-2.22-5.51-.82-5.51-4.2,0-1.4,1.09-2.6,3.48-2.6,1.07,0,2.17.29,2.92.81l-.43,1.04c-.79-.51-1.69-.74-2.5-.74-1.55,0-2.21.65-2.21,1.44,0,2.22,5.51.83,5.51,4.17,0,1.39-1.12,2.59-3.52,2.59-1.39,0-2.76-.47-3.48-1.14Z"/>
        <path d="m1111,537.06h-4.84l-1,2.27h-1.34l4.12-9.1h1.29l4.13,9.1h-1.37l-1-2.27Zm-.46-1.04l-1.96-4.46-1.96,4.46h3.93Z"/>
        <path d="m1114.72,530.23h1.3v7.97h4.93v1.13h-6.23v-9.1Z"/>
        <path d="m1122.44,530.23h1.3v7.97h4.93v1.13h-6.23v-9.1Z"/>
        <path d="m1136.77,538.2v1.13h-6.6v-9.1h6.42v1.13h-5.12v2.79h4.56v1.1h-4.56v2.94h5.3Z"/>
        <path d="m1142.37,530.23h3.83c2.93,0,4.91,1.85,4.91,4.55s-1.99,4.55-4.91,4.55h-3.83v-9.1Zm3.76,7.97c2.25,0,3.69-1.38,3.69-3.42s-1.44-3.42-3.69-3.42h-2.46v6.84h2.46Z"/>
        <path d="m1159.71,538.2v1.13h-6.6v-9.1h6.42v1.13h-5.12v2.79h4.56v1.1h-4.56v2.94h5.3Z"/>
        <path d="m1164.57,534.78c0-2.69,2.05-4.65,4.82-4.65,1.4,0,2.63.48,3.46,1.42l-.85.82c-.7-.74-1.56-1.08-2.56-1.08-2.05,0-3.58,1.48-3.58,3.5s1.52,3.5,3.58,3.5c1,0,1.86-.35,2.56-1.09l.85.82c-.83.94-2.05,1.43-3.47,1.43-2.76,0-4.81-1.96-4.81-4.65Z"/>
        <path d="m1173.78,534.78c0-2.67,2.05-4.65,4.85-4.65s4.82,1.98,4.82,4.65-2.05,4.65-4.82,4.65-4.85-1.99-4.85-4.65Zm8.37,0c0-2.02-1.51-3.5-3.52-3.5s-3.55,1.48-3.55,3.5,1.51,3.5,3.55,3.5,3.52-1.48,3.52-3.5Z"/>
        <path d="m1185.36,535.4v-5.17h1.3v5.12c0,2.01.92,2.92,2.56,2.92s2.57-.91,2.57-2.92v-5.12h1.26v5.17c0,2.64-1.44,4.03-3.85,4.03s-3.85-1.39-3.85-4.03Z"/>
        <path d="m1201.8,539.33l-1.96-2.79c-.18.01-.38.03-.57.03h-2.25v2.77h-1.3v-9.1h3.55c2.37,0,3.8,1.2,3.8,3.17,0,1.4-.73,2.42-2,2.87l2.16,3.05h-1.42Zm-.04-5.93c0-1.3-.87-2.04-2.54-2.04h-2.21v4.09h2.21c1.66,0,2.54-.75,2.54-2.05Z"/>
        <path d="m1204.34,538.29l.48-1.01c.68.61,1.83,1.05,3,1.05,1.57,0,2.25-.61,2.25-1.4,0-2.22-5.51-.82-5.51-4.2,0-1.4,1.09-2.6,3.48-2.6,1.07,0,2.17.29,2.92.81l-.43,1.04c-.79-.51-1.69-.74-2.5-.74-1.55,0-2.21.65-2.21,1.44,0,2.22,5.51.83,5.51,4.17,0,1.39-1.12,2.59-3.52,2.59-1.39,0-2.76-.47-3.48-1.14Z"/>
      </g>
      <g>
        <path d="m1142.87,514.88h-8.75l-1.72,4.5h-3.35l7.87-19.45h3.2l7.9,19.45h-3.4l-1.75-4.5Zm-1.08-2.83l-3.3-8.5-3.27,8.5h6.57Z"/>
        <path d="m1154,499.94v19.45h-3.25v-16.42h-3.7v-3.03h6.95Z"/>
        <path d="m1163.53,499.94v19.45h-3.25v-16.42h-3.7v-3.03h6.95Z"/>
        <path d="m1179.42,513.55c0,3.28-2.22,6.11-6.92,6.11-2.47,0-4.95-.83-6.57-2.25l1.4-2.81c1.25,1.17,3.15,1.92,5.12,1.92,2.32,0,3.7-1.14,3.7-2.95s-1.15-2.89-3.8-2.89h-1.6v-2.47l3.97-5.25h-7.95v-3.03h11.92v2.42l-4.25,5.61c3.3.47,4.97,2.67,4.97,5.58Z"/>
      </g>
    </g>
    <g>
      <path class="cls-2" d="m1012.37,345.58l26.19-173.99c.48-3.17,3.47-5.32,6.63-4.77l234.5,41.12c3.08.54,5.15,3.46,4.64,6.54l-32.07,195.65c-.51,3.09-3.4,5.19-6.49,4.72l-149.46-22.95"/>
      <g>
        <path d="m1087.38,262.14l1.12-2.81c1.4,1.25,3.62,2.14,5.77,2.14,2.72,0,3.87-1.08,3.87-2.53,0-4.2-10.4-1.45-10.4-8.67,0-3.14,2.25-5.81,7.05-5.81,2.1,0,4.3.61,5.82,1.72l-1.02,2.81c-1.58-1.03-3.3-1.53-4.82-1.53-2.7,0-3.8,1.17-3.8,2.64,0,4.14,10.37,1.44,10.37,8.59,0,3.11-2.27,5.78-7.07,5.78-2.72,0-5.45-.95-6.9-2.33Z"/>
        <path d="m1115.93,259.7h-8.75l-1.72,4.5h-3.35l7.87-19.45h3.2l7.9,19.45h-3.4l-1.75-4.5Zm-1.08-2.83l-3.3-8.5-3.27,8.5h6.57Z"/>
        <path d="m1123.3,244.75h3.25v16.39h9.15v3.06h-12.4v-19.45Z"/>
        <path d="m1138.28,244.75h3.25v16.39h9.15v3.06h-12.4v-19.45Z"/>
        <path d="m1166.37,261.17v3.03h-13.12v-19.45h12.77v3.03h-9.52v5.06h8.45v2.97h-8.45v5.36h9.87Z"/>
        <path d="m1176.9,244.75h7.65c5.67,0,9.55,3.89,9.55,9.73s-3.87,9.72-9.55,9.72h-7.65v-19.45Zm7.5,16.39c3.9,0,6.42-2.64,6.42-6.67s-2.52-6.67-6.42-6.67h-4.25v13.34h4.25Z"/>
        <path d="m1210.67,261.17v3.03h-13.12v-19.45h12.77v3.03h-9.52v5.06h8.45v2.97h-8.45v5.36h9.87Z"/>
        <path d="m1100.08,281.15h-5.8v-3.06h14.85v3.06h-5.8v16.39h-3.25v-16.39Z"/>
        <path d="m1123.03,297.54l-3.57-5.7c-.23.03-.45.03-.67.03h-3.95v5.67h-3.25v-19.45h7.2c4.6,0,7.45,2.61,7.45,6.92,0,2.95-1.35,5.11-3.72,6.14l4.02,6.39h-3.5Zm-4.4-16.39h-3.8v7.75h3.8c2.85,0,4.32-1.45,4.32-3.89s-1.47-3.86-4.32-3.86Z"/>
        <path d="m1141.2,293.04h-8.75l-1.72,4.5h-3.35l7.87-19.45h3.2l7.9,19.45h-3.4l-1.75-4.5Zm-1.07-2.83l-3.3-8.5-3.27,8.5h6.57Z"/>
        <path d="m1163.65,278.09l-7.62,19.45h-3.2l-7.65-19.45h3.52l5.82,15,5.87-15h3.25Z"/>
        <path d="m1176.3,293.04h-8.75l-1.72,4.5h-3.35l7.87-19.45h3.2l7.9,19.45h-3.4l-1.75-4.5Zm-1.08-2.83l-3.3-8.5-3.27,8.5h6.57Z"/>
        <path d="m1183.68,278.09h3.25v19.45h-3.25v-19.45Z"/>
        <path d="m1191.65,278.09h3.25v16.39h9.15v3.06h-12.4v-19.45Z"/>
      </g>
    </g>
    <g>
      <path class="cls-2" d="m447.73,792.1l-12.79-137.19c-.3-3.17-3.12-5.48-6.29-5.14l-100.44,10.73c-3.1.33-5.35,3.08-5.08,6.18l12.28,136.35c.28,3.16,3.08,5.47,6.24,5.17l100.95-9.89c3.12-.31,5.41-3.08,5.12-6.21Z"/>
      <g>
        <path d="m368.5,749.99c0,1.56-1.18,2.46-3.48,2.46h-4.34v-9.1h4.08c2.09,0,3.26.88,3.26,2.35,0,.99-.51,1.68-1.22,2.03,1.03.29,1.7,1.05,1.7,2.26Zm-6.53-5.59v2.91h2.67c1.33,0,2.08-.49,2.08-1.46s-.75-1.46-2.08-1.46h-2.67Zm5.21,5.49c0-1.05-.78-1.52-2.22-1.52h-2.99v3.03h2.99c1.44,0,2.22-.46,2.22-1.51Z"/>
        <path d="m370.44,748.52v-5.17h1.3v5.12c0,2.01.92,2.92,2.56,2.92s2.57-.91,2.57-2.92v-5.12h1.26v5.17c0,2.64-1.44,4.03-3.85,4.03s-3.85-1.39-3.85-4.03Z"/>
        <path d="m386.88,752.45l-1.96-2.79c-.18.01-.38.03-.57.03h-2.25v2.77h-1.3v-9.1h3.55c2.37,0,3.8,1.2,3.8,3.17,0,1.4-.73,2.42-2,2.87l2.16,3.05h-1.42Zm-.04-5.93c0-1.3-.87-2.04-2.54-2.04h-2.21v4.09h2.21c1.66,0,2.54-.75,2.54-2.05Z"/>
        <path d="m396.86,751.31v1.13h-6.6v-9.1h6.42v1.13h-5.12v2.79h4.56v1.1h-4.56v2.94h5.3Z"/>
        <path d="m404.76,750.17h-4.84l-1,2.27h-1.34l4.12-9.1h1.29l4.13,9.1h-1.36l-1-2.27Zm-.45-1.04l-1.96-4.46-1.96,4.46h3.93Z"/>
        <path d="m408.2,748.52v-5.17h1.3v5.12c0,2.01.92,2.92,2.56,2.92s2.57-.91,2.57-2.92v-5.12h1.26v5.17c0,2.64-1.44,4.03-3.85,4.03s-3.85-1.39-3.85-4.03Z"/>
      </g>
      <g>
        <path d="m371.84,729.65h-8.75l-1.72,4.5h-3.35l7.87-19.45h3.2l7.9,19.45h-3.4l-1.75-4.5Zm-1.07-2.83l-3.3-8.5-3.27,8.5h6.57Z"/>
        <path d="m382.96,714.7v19.45h-3.25v-16.42h-3.7v-3.03h6.95Z"/>
        <path d="m386.44,724.43c0-6.39,3.15-10,7.3-10s7.32,3.61,7.32,10-3.15,10-7.32,10-7.3-3.61-7.3-10Zm11.35,0c0-4.7-1.65-6.86-4.05-6.86s-4.02,2.17-4.02,6.86,1.65,6.86,4.02,6.86,4.05-2.17,4.05-6.86Z"/>
        <path d="m417.46,728.57c0,3.61-2.82,5.86-7.17,5.86s-7.12-2.25-7.12-5.86c0-2.14,1-3.72,2.8-4.64-1.4-.86-2.17-2.25-2.17-4.08,0-3.33,2.62-5.42,6.5-5.42s6.55,2.08,6.55,5.42c0,1.83-.8,3.22-2.22,4.08,1.82.92,2.85,2.5,2.85,4.64Zm-3.27-.11c0-1.92-1.5-3.11-3.9-3.11s-3.85,1.2-3.85,3.11,1.45,3.14,3.85,3.14,3.9-1.17,3.9-3.14Zm-7.2-8.45c0,1.67,1.25,2.72,3.3,2.72s3.35-1.06,3.35-2.72c0-1.75-1.35-2.75-3.35-2.75s-3.3,1-3.3,2.75Z"/>
      </g>
    </g>
    <g>
      <path class="cls-2" d="m448.79,803.46l13.48,144.55c.29,3.13-2,5.9-5.12,6.21l-100.84,9.91c-3.14.31-5.94-2-6.24-5.14l-13.61-144.56c-.29-3.13,2-5.91,5.12-6.21l100.96-9.89c3.15-.31,5.94,2,6.24,5.15Z"/>
      <g>
        <path d="m381.49,897.44c0,1.56-1.18,2.46-3.48,2.46h-4.34v-9.1h4.08c2.09,0,3.26.88,3.26,2.35,0,.99-.51,1.68-1.22,2.03,1.03.29,1.7,1.05,1.7,2.26Zm-6.53-5.59v2.91h2.67c1.33,0,2.08-.49,2.08-1.46s-.75-1.46-2.08-1.46h-2.67Zm5.21,5.49c0-1.05-.78-1.52-2.22-1.52h-2.99v3.03h2.99c1.44,0,2.22-.46,2.22-1.51Z"/>
        <path d="m383.43,895.97v-5.17h1.3v5.12c0,2.01.92,2.92,2.56,2.92s2.57-.91,2.57-2.92v-5.12h1.26v5.17c0,2.64-1.44,4.03-3.85,4.03s-3.85-1.39-3.85-4.03Z"/>
        <path d="m399.87,899.9l-1.96-2.79c-.18.01-.38.03-.57.03h-2.25v2.77h-1.3v-9.1h3.55c2.37,0,3.8,1.2,3.8,3.17,0,1.4-.73,2.42-2,2.87l2.16,3.05h-1.42Zm-.04-5.93c0-1.3-.87-2.04-2.54-2.04h-2.21v4.09h2.21c1.66,0,2.54-.75,2.54-2.05Z"/>
        <path d="m409.84,898.77v1.13h-6.6v-9.1h6.42v1.13h-5.12v2.79h4.56v1.1h-4.56v2.94h5.3Z"/>
        <path d="m417.75,897.62h-4.84l-1,2.27h-1.34l4.12-9.1h1.29l4.13,9.1h-1.37l-1-2.27Zm-.46-1.04l-1.96-4.46-1.96,4.46h3.93Z"/>
        <path d="m421.19,895.97v-5.17h1.3v5.12c0,2.01.92,2.92,2.56,2.92s2.57-.91,2.57-2.92v-5.12h1.26v5.17c0,2.64-1.44,4.03-3.85,4.03s-3.85-1.39-3.85-4.03Z"/>
      </g>
      <g>
        <path d="m382.28,876.72h-8.75l-1.72,4.5h-3.35l7.87-19.45h3.2l7.9,19.45h-3.4l-1.75-4.5Zm-1.08-2.83l-3.3-8.5-3.27,8.5h6.57Z"/>
        <path d="m393.41,861.77v19.45h-3.25v-16.42h-3.7v-3.03h6.95Z"/>
        <path d="m396.89,871.5c0-6.39,3.15-10,7.3-10s7.32,3.61,7.32,10-3.15,10-7.32,10-7.3-3.61-7.3-10Zm11.35,0c0-4.7-1.65-6.86-4.05-6.86s-4.02,2.17-4.02,6.86,1.65,6.86,4.02,6.86,4.05-2.17,4.05-6.86Z"/>
        <path d="m427.18,871.16c0,6.67-3.5,10.34-8.57,10.34-1.75,0-3.42-.42-4.6-1.25l1.2-2.72c.95.69,2.1.94,3.32.94,3.3,0,5.37-2.28,5.37-6.7v-.03c-1.05,1.36-2.72,2.03-4.67,2.03-3.45,0-6.02-2.33-6.02-5.97,0-3.86,2.82-6.31,6.4-6.31,4.77,0,7.57,3.42,7.57,9.67Zm-3.77-3.56c0-1.83-1.3-3.28-3.62-3.28-2.02,0-3.42,1.28-3.42,3.31s1.38,3.31,3.5,3.31,3.55-1.42,3.55-3.33Z"/>
      </g>
    </g>
    <g>
      <path class="cls-2" d="m463.33,959.37l7.36,78.9c.29,3.13-2,5.91-5.13,6.21l-98.98,9.55c-3.09.3-5.86-1.93-6.21-5.02l-9.09-78.56c-.37-3.17,1.94-6.02,5.11-6.33l100.71-9.9c3.15-.31,5.94,2,6.24,5.15Z"/>
      <g>
        <path d="m393.86,1023.38c0,1.56-1.18,2.46-3.48,2.46h-4.34v-9.1h4.08c2.09,0,3.26.88,3.26,2.35,0,.99-.51,1.68-1.22,2.03,1.03.29,1.7,1.05,1.7,2.26Zm-6.53-5.59v2.91h2.67c1.33,0,2.08-.49,2.08-1.46s-.75-1.46-2.08-1.46h-2.67Zm5.21,5.49c0-1.05-.78-1.52-2.22-1.52h-2.99v3.03h2.99c1.44,0,2.22-.46,2.22-1.51Z"/>
        <path d="m395.79,1021.91v-5.17h1.3v5.12c0,2.01.92,2.92,2.56,2.92s2.57-.91,2.57-2.92v-5.12h1.26v5.17c0,2.64-1.44,4.03-3.85,4.03s-3.85-1.39-3.85-4.03Z"/>
        <path d="m412.24,1025.84l-1.96-2.79c-.18.01-.38.03-.57.03h-2.25v2.77h-1.3v-9.1h3.55c2.37,0,3.8,1.2,3.8,3.17,0,1.4-.73,2.42-2,2.87l2.16,3.05h-1.42Zm-.04-5.93c0-1.3-.87-2.04-2.54-2.04h-2.21v4.1h2.21c1.66,0,2.54-.75,2.54-2.05Z"/>
        <path d="m422.21,1024.71v1.13h-6.6v-9.1h6.42v1.13h-5.12v2.79h4.56v1.11h-4.56v2.94h5.3Z"/>
        <path d="m430.11,1023.57h-4.84l-1,2.27h-1.34l4.12-9.1h1.29l4.13,9.1h-1.36l-1-2.27Zm-.45-1.04l-1.96-4.46-1.96,4.46h3.93Z"/>
        <path d="m433.56,1021.91v-5.17h1.3v5.12c0,2.01.92,2.92,2.56,2.92s2.57-.91,2.57-2.92v-5.12h1.26v5.17c0,2.64-1.44,4.03-3.85,4.03s-3.85-1.39-3.85-4.03Z"/>
      </g>
      <g>
        <path d="m399.77,1003.59h-8.75l-1.72,4.5h-3.35l7.87-19.45h3.2l7.9,19.45h-3.4l-1.75-4.5Zm-1.07-2.83l-3.3-8.5-3.27,8.5h6.57Z"/>
        <path d="m410.9,988.64v19.45h-3.25v-16.42h-3.7v-3.03h6.95Z"/>
        <path d="m420.42,988.64v19.45h-3.25v-16.42h-3.7v-3.03h6.95Z"/>
        <path d="m423.9,998.36c0-6.39,3.15-10,7.3-10s7.32,3.61,7.32,10-3.15,10-7.32,10-7.3-3.61-7.3-10Zm11.35,0c0-4.7-1.65-6.86-4.05-6.86s-4.02,2.17-4.02,6.86,1.65,6.86,4.02,6.86,4.05-2.17,4.05-6.86Z"/>
      </g>
    </g>
    <g>
      <path class="cls-2" d="m361.01,1054.57l104.51-10.09c3.14-.3,5.93,2,6.23,5.15l26.68,286.19c.19,2.04-.73,4.03-2.42,5.21l-108.71,75.83"/>
      <g>
        <path d="m387.98,1214.68c0-5.81,4-10,9.37-10,2.85,0,5.3,1.14,6.92,3.25l-2.1,2.19c-1.27-1.53-2.85-2.28-4.67-2.28-3.62,0-6.25,2.83-6.25,6.84s2.62,6.83,6.25,6.83c1.82,0,3.4-.75,4.67-2.31l2.1,2.22c-1.62,2.11-4.07,3.25-6.95,3.25-5.35,0-9.35-4.2-9.35-10Z"/>
        <path d="m418.38,1219.9h-8.75l-1.72,4.5h-3.35l7.87-19.45h3.2l7.9,19.45h-3.4l-1.75-4.5Zm-1.07-2.83l-3.3-8.5-3.27,8.5h6.57Z"/>
        <path d="m429,1207.98v5.92h8.45v3.06h-8.45v7.45h-3.25v-19.45h12.77v3.03h-9.52Z"/>
        <path d="m454.8,1221.37v3.03h-13.12v-19.45h12.77v3.03h-9.52v5.06h8.45v2.97h-8.45v5.36h9.87Z"/>
        <path d="m461.98,1208.01h-5.8v-3.06h14.85v3.06h-5.8v16.39h-3.25v-16.39Z"/>
      </g>
    </g>
    <path class="cls-4" d="m354.28,976.5l26.16-2.15s-1.46,25.71-23.43,25.71l-2.73-23.57Z"/>
    <path class="cls-4" d="m339.7,817.71l26.2-1.58s-2.01,25.68-23.98,25.2l-2.22-23.62Z"/>
    <path class="cls-4" d="m337.84,795.41l26.04-3.23s-6.67-24.88-28.18-20.4l2.14,23.63Z"/>
    <path class="cls-4" d="m315.77,557.54l26.19-1.61s-1.99,25.68-23.96,25.22l-2.24-23.62Z"/>
    <path class="cls-4" d="m253.06,443.24l-25.98,3.68s7.09,24.76,28.52,19.91l-2.54-23.59Z"/>
    <path class="cls-4" d="m261.77,638.03l-3.32-26.03s-24.85,6.75-20.31,28.24l23.62-2.21Z"/>
    <path class="cls-4" d="m247.51,387.13l-26.2,1.51s2.08-25.67,24.05-25.14l2.15,23.63Z"/>
    <path class="cls-4" d="m287.98,264.74l26.19-1.66s-1.94,25.68-23.9,25.27l-2.29-23.61Z"/>
    <path class="cls-4" d="m228.37,178.18l-26.2,1.51s2.08-25.67,24.05-25.14l2.15,23.63Z"/>
    <path class="cls-4" d="m198.71,41.01l1.12,26.22s-25.64-2.46-24.78-24.42l23.66-1.8Z"/>
    <path class="cls-4" d="m673.87,398.91l-1.42,26.21s-25.28-4.93-22.3-26.7l23.72.49Z"/>
    <path class="cls-4" d="m440.16,393.52l.24,26.24s25.47-3.79,23.48-25.67l-23.72-.57Z"/>
    <path class="cls-4" d="m909.42,403.09l-1.42,26.21s-25.28-4.93-22.3-26.7l23.72.49Z"/>
    <path class="cls-4" d="m1097.47,401.44l25.59,5.82s-9.13,24.08-30.08,17.47l4.49-23.3Z"/>
    <path class="cls-4" d="m1241.44,417.14l-4.82,25.8s-24.42-8.18-18.63-29.38l23.45,3.58Z"/>
    <path class="cls-4" d="m735.71,400.19l.4,26.24s25.45-3.95,23.32-25.81l-23.72-.43Z"/>
  </g>
  <g>
    <path class="cls-6" d="m308.83,477.44h109.51c3.17,0,5.82,2.41,6.11,5.57l15.56,166.98c.31,3.34-2.12,6.31-5.46,6.67l-108.04,11.54c-3.4.36-6.44-2.12-6.76-5.52l-17.02-178.51c-.34-3.6,2.49-6.72,6.11-6.72Z"/>
    <g>
      <path class="cls-1" d="m356.58,589.94c0,1.68-1.27,2.64-3.75,2.64h-4.67v-9.78h4.39c2.25,0,3.51.95,3.51,2.53,0,1.06-.54,1.8-1.31,2.18,1.1.31,1.83,1.13,1.83,2.43Zm-7.02-6.01v3.13h2.87c1.43,0,2.24-.53,2.24-1.57s-.81-1.57-2.24-1.57h-2.87Zm5.6,5.9c0-1.13-.84-1.63-2.39-1.63h-3.21v3.26h3.21c1.55,0,2.39-.49,2.39-1.62Z"/>
      <path class="cls-1" d="m358.66,588.36v-5.56h1.4v5.51c0,2.17.99,3.15,2.75,3.15s2.77-.98,2.77-3.15v-5.51h1.36v5.56c0,2.84-1.55,4.33-4.14,4.33s-4.14-1.5-4.14-4.33Z"/>
      <path class="cls-1" d="m376.35,592.58l-2.11-3c-.2.01-.41.03-.62.03h-2.42v2.98h-1.4v-9.78h3.82c2.54,0,4.08,1.29,4.08,3.41,0,1.51-.78,2.6-2.15,3.09l2.32,3.28h-1.52Zm-.04-6.37c0-1.4-.94-2.19-2.73-2.19h-2.38v4.4h2.38c1.79,0,2.73-.81,2.73-2.21Z"/>
      <path class="cls-1" d="m387.08,591.37v1.22h-7.1v-9.78h6.9v1.22h-5.51v3.01h4.91v1.19h-4.91v3.16h5.7Z"/>
      <path class="cls-1" d="m395.58,590.14h-5.2l-1.08,2.45h-1.44l4.43-9.78h1.38l4.44,9.78h-1.47l-1.08-2.45Zm-.49-1.12l-2.11-4.79-2.11,4.79h4.22Z"/>
      <path class="cls-1" d="m399.29,588.36v-5.56h1.4v5.51c0,2.17.99,3.15,2.75,3.15s2.77-.98,2.77-3.15v-5.51h1.36v5.56c0,2.84-1.55,4.33-4.14,4.33s-4.14-1.5-4.14-4.33Z"/>
    </g>
    <g>
      <path class="cls-1" d="m359.05,567.27h-9.41l-1.85,4.84h-3.6l8.47-20.92h3.44l8.5,20.92h-3.66l-1.88-4.84Zm-1.16-3.05l-3.55-9.15-3.52,9.15h7.07Z"/>
      <path class="cls-1" d="m371.02,551.19v20.92h-3.5v-17.67h-3.98v-3.26h7.47Z"/>
      <path class="cls-1" d="m374.76,561.65c0-6.88,3.39-10.76,7.85-10.76s7.88,3.89,7.88,10.76-3.39,10.76-7.88,10.76-7.85-3.89-7.85-10.76Zm12.21,0c0-5.05-1.78-7.38-4.36-7.38s-4.33,2.33-4.33,7.38,1.77,7.38,4.33,7.38,4.36-2.33,4.36-7.38Z"/>
      <path class="cls-1" d="m406.92,551.19v2.6l-7.31,18.32h-3.74l7.07-17.64h-7.39v3.56h-3.25v-6.85h14.63Z"/>
    </g>
  </g>
</svg>