<svg width="42" height="42" viewBox="0 0 42 42" fill="none" xmlns="http://www.w3.org/2000/svg">
<path d="M29.6571 28.3483C29.5913 30.4825 28.1742 32.2884 26.0674 32.8452C23.4389 33.5407 20.9603 31.9536 20.253 29.6169C20.113 29.1532 20.0602 28.6524 20.0381 28.1653C20.014 27.6293 20.4568 27.2197 20.9824 27.2099C21.5236 27.2001 21.9554 27.6046 21.9788 28.1562C22.0355 29.4873 22.6698 30.4291 23.9182 30.8849C25.6317 31.5108 27.4487 30.2988 27.6428 28.6524C27.8088 27.2399 27.2481 26.1373 26.0387 25.6039C25.6193 25.419 25.1231 25.3337 24.6607 25.3317C19.6499 25.3135 14.6386 25.3206 9.62717 25.3193C9.08663 25.3193 8.7343 25.1129 8.5793 24.713C8.34485 24.11 8.63857 23.5948 9.35038 23.3584C9.49952 23.3395 9.64801 23.3044 9.79714 23.3044C14.7401 23.3017 19.6832 23.3017 24.6255 23.3044C24.7857 23.3044 24.9453 23.3402 25.1055 23.3591C27.7997 23.5974 29.7398 25.6984 29.6571 28.3483Z" fill="#A1D7FF"/>
<path d="M21.2175 21.4789C18.6249 21.4789 16.0316 21.4802 13.4389 21.4782C12.9401 21.4782 12.5982 21.2295 12.4582 20.7821C12.3325 20.3815 12.4523 19.94 12.817 19.7257C13.028 19.602 13.3035 19.5349 13.5503 19.5343C18.5734 19.5238 23.5965 19.5271 28.6196 19.5258C29.8518 19.5258 30.8919 18.8452 31.3406 17.716C32.057 15.9133 30.7811 14.0995 29.1296 13.8436C27.4187 13.5785 25.8245 14.9423 25.8166 16.6499C25.814 17.2314 25.3797 17.6469 24.832 17.6417C24.279 17.6365 23.8648 17.1884 23.8642 16.5945C23.8603 14.3242 25.6154 12.2773 27.8818 11.9107C30.352 11.5108 32.6997 12.9898 33.3354 15.4183C34.0758 18.2487 32.24 20.9924 29.4064 21.4157C29.1315 21.4567 28.8508 21.4763 28.5734 21.4769C26.1214 21.4815 23.6695 21.4789 21.2175 21.4789Z" fill="#A1D7FF"/>
<path d="M19.2442 17.4079C18.8496 17.5395 18.4223 17.5701 18.0101 17.6476C17.861 17.6665 17.7118 17.701 17.5627 17.701C14.9739 17.7042 12.3852 17.7042 9.79714 17.701C9.64801 17.701 9.49952 17.6658 9.35038 17.6463C8.88734 17.529 8.57149 17.2588 8.51222 16.769C8.46403 16.3692 8.62163 16.0266 8.97657 15.8384C9.1752 15.7335 9.42984 15.6925 9.65908 15.6912C12.3488 15.6814 15.0384 15.688 17.7274 15.6834C19.125 15.6808 20.2465 14.8159 20.5545 13.4587C20.9459 11.7349 19.7737 10.2682 18.2406 10.009C16.5832 9.72899 15.2006 10.9735 14.9935 12.209C14.9583 12.4193 14.8958 12.6284 14.8906 12.8394C14.8789 13.2966 14.6184 13.6573 14.184 13.7674C13.7496 13.8775 13.2911 13.6678 13.0762 13.2835C12.8821 12.9371 12.9427 12.5867 12.9915 12.22C13.1081 11.3526 13.4194 10.5659 13.9645 9.89051C15.1947 8.36657 16.8014 7.7277 18.7219 8.10673C20.5877 8.47468 21.8616 9.63 22.3891 11.4542C23.1361 14.0396 21.788 16.5587 19.2442 17.4079Z" fill="#A1D7FF"/>
</svg>
